<?xml version="1.0" encoding="utf-8"?>
<!-- Generator: Adobe Illustrator 23.0.1, SVG Export Plug-In . SVG Version: 6.00 Build 0)  -->
<svg version="1.1" id="Premier_plan" xmlns="http://www.w3.org/2000/svg" xmlns:xlink="http://www.w3.org/1999/xlink" x="0px"
	 y="0px" viewBox="0 0 250 250" enable-background="new 0 0 250 250" xml:space="preserve">
<g>
	<circle fill="#FFFFFF" cx="125" cy="125" r="115.9"/>
	<path fill-rule="evenodd" clip-rule="evenodd" fill="#FF1400" d="M125,250C55.9,250,0,194.2,0,125.2C0,55.8,55.9,0,125,0
		s125,55.8,125,125.2C250,194.2,194.1,250,125,250z M125,18.6c-58.6,0-106.4,47.6-106.4,106.6c0,58.5,47.7,106.2,106.4,106.2
		c58.6,0,106.4-47.6,106.4-106.2C231.4,66.2,183.6,18.6,125,18.6z"/>
	<path fill-rule="evenodd" clip-rule="evenodd" fill="#FF1400" d="M179.6,185.7L138.1,68.9h-28L68.7,185.7h25.5l7.3-22.1h43.2
		l7.3,22.1H179.6z M138.4,144.3h-30.5l12.1-37.2c1.5-4.6,3-10.7,3-14.7h0.3c0,3.6,1.3,9.8,3,14.7L138.4,144.3z"/>
</g>
</svg>
